<svg id="Capa_1" enable-background="new 0 0 511.982 511.982" height="512" viewBox="0 0 511.982 511.982" width="512" xmlns="http://www.w3.org/2000/svg" fill="#353F58"><g><g id="Page-1_2_"><g id="_x30_03---Directional-Movement" clip-rule="evenodd" fill-rule="evenodd"><path id="Path_8_" d="m176.918 105.922h52.551v88.276c0 4.875 3.952 8.828 8.828 8.828h35.31c4.875 0 8.828-3.952 8.828-8.828v-88.276h52.701c3.62.001 6.901-2.132 8.37-5.441 1.468-3.309.849-7.173-1.581-9.857l-79.282-87.649c-1.709-1.894-4.141-2.975-6.692-2.975s-4.982 1.081-6.691 2.975l-79.183 87.534c-2.447 2.705-3.07 6.597-1.59 9.931 1.479 3.333 4.784 5.482 8.431 5.482z"/><path id="Path_7_" d="m273.606 308.957h-35.31c-4.875 0-8.828 3.952-8.828 8.828v88.276h-52.551c-3.647 0-6.952 2.149-8.432 5.482-1.48 3.334-.856 7.226 1.59 9.931l79.183 87.534c1.709 1.894 4.14 2.975 6.691 2.975s4.982-1.081 6.691-2.975l79.281-87.649c2.43-2.684 3.05-6.548 1.581-9.857-1.468-3.309-4.749-5.442-8.37-5.441h-52.701v-88.276c.003-4.876-3.949-8.828-8.825-8.828z"/><path id="Path_6_" d="m308.961 238.336v35.31c0 4.875 3.952 8.828 8.828 8.828h88.276v52.701c-.001 3.62 2.132 6.901 5.441 8.37s7.173.849 9.857-1.581l87.649-79.281c1.888-1.71 2.966-4.139 2.966-6.687s-1.077-4.977-2.966-6.687l-87.543-79.236c-2.705-2.441-6.594-3.06-9.924-1.581s-5.477 4.779-5.48 8.423v52.595h-88.276c-4.876-.002-8.828 3.951-8.828 8.826z"/><path id="Path_5_" d="m90.628 341.919c2.684 2.43 6.548 3.05 9.857 1.581 3.309-1.468 5.442-4.749 5.441-8.37v-52.7h88.276c4.875 0 8.828-3.952 8.828-8.828v-35.266c0-4.875-3.952-8.828-8.828-8.828h-88.276v-52.595c0-3.647-2.149-6.952-5.482-8.432-3.334-1.48-7.226-.856-9.931 1.59l-87.534 79.193c-1.893 1.707-2.974 4.137-2.974 6.687s1.081 4.98 2.974 6.687z"/></g></g></g></svg>