<svg id="Glyph" height="512" viewBox="0 0 64 64" width="512" xmlns="http://www.w3.org/2000/svg" fill="#353F58"><path d="m58.28038 24.9022a4.65425 4.65425 0 0 0 -8.07946.01016c-2.41191 3.75125-4.8933 7.47575-7.26966 11.23917a6.91668 6.91668 0 0 1 -4.04975 3.18981c-3.38981 1.04-7.37956 2.27989-11.2193 3.66983a1.94193 1.94193 0 0 1 -2.00989-.3 1.75012 1.75012 0 0 1 .97994-2.99977c3.36828-1.17241 6.86814-2.3497 10.18938-3.52981 3.40947-.83568 4.1473-5.60535 1.03979-7.2596a3.60672 3.60672 0 0 0 -3.08966-.36988c-3.89222 1.16124-7.72327 2.34031-11.63932 3.49972-6.0425 1.72141-11.41175 2.68589-13.719 9.35962-1.33145 3.95461-2.69963 8.13925-4.0899 12.09909a1.00962 1.00962 0 0 0 .61994 1.27989l14.76912 5.14972a1 1 0 0 0 1.22991-.5 3.84059 3.84059 0 0 1 2.46989-1.7499c5.87278-2.06825 12.00375-4.24225 17.92892-6.26963a10.6704 10.6704 0 0 0 6.12967-5.11962c2.05987-3.68978 4.1997-7.39958 6.26958-10.99935 1.43768-3.10957 5.30642-6.95174 3.5398-10.39945z"/><path d="m18.31273 31.38186c3.55684-1.01951 7.13475-2.12242 10.66935-3.16987 2.44345-.62523 4.44207-1.64636 7.03957-1.86005a6.10479 6.10479 0 0 1 4.86977 2.73 32.535 32.535 0 0 0 2.64985-2.4198c2.29985-2.32988 5.00965-6.10962 4.87965-10.84933a12.1356 12.1356 0 0 0 -11.79928-11.78937 11.93292 11.93292 0 0 0 -8.32946 2.87984c-.21456.23609-.20875.18081-.44-.03a12.04281 12.04281 0 0 0 -12.91925-1.74986 11.82738 11.82738 0 0 0 -7.16955 10.61936c-.37193 6.20984 5.1828 12.07702 10.54935 15.63908z"/></svg>