<svg id="fi_9220037" enable-background="new 0 0 100 100" height="512" viewBox="0 0 100 100" width="512" xmlns="http://www.w3.org/2000/svg" fill="#353F58"><path d="m70.89 83.23c-.64 0-1.28-.31-1.66-.88-.62-.92-.37-2.16.54-2.78 9.85-6.62 15.73-17.64 15.73-29.48 0-17.4-12.44-32.13-29.58-35.01-1.09-.18-1.82-1.21-1.64-2.3s1.21-1.82 2.3-1.64c19.08 3.2 32.92 19.59 32.92 38.95 0 13.17-6.54 25.43-17.5 32.8-.34.23-.73.34-1.11.34z"></path><path d="m60.59 26.1c-.79 0-1.53-.47-1.85-1.24l-4.79-11.63c-.39-.95 0-2.04.9-2.52l11.36-6.1c.97-.52 2.19-.16 2.71.82.52.97.16 2.19-.82 2.71l-9.77 5.24 4.1 9.96c.42 1.02-.07 2.19-1.09 2.61-.24.11-.49.15-.75.15z"></path><path clip-rule="evenodd" d="m63.93 85.1c.2-1.09-.52-2.13-1.6-2.33-1.09-.2-2.13.52-2.33 1.6-.2 1.09.52 2.13 1.6 2.33 1.09.2 2.13-.51 2.33-1.6z" fill-rule="evenodd"></path><path clip-rule="evenodd" d="m55.72 87.19c.2-1.09-.52-2.13-1.6-2.33-1.09-.2-2.13.52-2.33 1.6-.2 1.09.52 2.13 1.6 2.33 1.09.2 2.13-.51 2.33-1.6z" fill-rule="evenodd"></path><path d="m43.75 88.89c-.11 0-.22-.01-.33-.03-19.08-3.2-32.92-19.59-32.92-38.95 0-13.17 6.54-25.43 17.5-32.8.92-.62 2.16-.37 2.78.54.62.92.37 2.16-.54 2.78-9.86 6.62-15.74 17.64-15.74 29.48 0 17.4 12.44 32.13 29.58 35.01 1.09.18 1.82 1.21 1.64 2.3-.16.98-1.01 1.67-1.97 1.67z"></path><path d="m32.84 95.62c-.71 0-1.4-.38-1.76-1.05-.52-.97-.16-2.19.82-2.71l9.77-5.25-4.1-9.96c-.42-1.02.07-2.19 1.09-2.61s2.19.07 2.61 1.09l4.79 11.63c.39.95 0 2.04-.9 2.52l-11.36 6.1c-.32.17-.64.24-.96.24z"></path><g clip-rule="evenodd" fill-rule="evenodd"><path d="m36.06 14.9c-.2 1.09.52 2.13 1.6 2.33 1.09.2 2.13-.52 2.33-1.6.2-1.09-.52-2.13-1.6-2.33-1.08-.21-2.12.51-2.33 1.6z"></path><path d="m44.27 12.81c-.2 1.09.52 2.13 1.6 2.33 1.09.2 2.13-.52 2.33-1.6s-.52-2.13-1.6-2.33-2.12.51-2.33 1.6z"></path></g></svg>