<svg xmlns="http://www.w3.org/2000/svg" xmlns:lucid="lucid" width="681" height="361"><g lucid:page-tab-id="0_0" stroke="#b0b8c3"><path d="M660.5 319.5v-2m0-3.96v-3.97m0-3.97v-3.97m0-3.97v-3.97m0-4v-3.96m0-3.97v-3.97m0-3.97v-3.97m0-3.97v-4m0-3.96v-3.97m0-3.97v-3.97m0-3.97v-3.97m0-4v-3.96m0-3.97v-3.97m0-3.97v-3.97m0-3.97v-4m0-3.96v-3.97m0-3.97v-3.97m0-3.97v-3.97m0-4v-3.96m0-3.97v-3.97m0-3.97v-3.97m0-3.97v-4m0-3.96v-3.97m0-3.97v-3.97m0-3.97v-3.97m0-4v-3.96m0-3.97V111m0-3.97v-3.97m0-3.97v-4m0-3.96v-3.97m0-3.97v-3.97m0-3.97V71.3m0-4v-3.96m0-3.97V55.4m0-3.97v-3.97m0-3.97v-2" fill="none"/><path d="M660.97 320h-.94v-.5h.94zM660.97 41.5h-.94V41h.94z" stroke-width=".05" fill="#b0b8c3"/><path d="M20.5 41.5v278" fill="none"/><path d="M20.98 41.5h-.96V41h.96zM20.98 320h-.96v-.5h.96z" stroke-width=".05" fill="#b0b8c3"/><path d="M260.5 41.5v2m0 3.96v3.97m0 3.97v3.97m0 3.97v3.97m0 4v3.96m0 3.97v3.97m0 3.97v3.97m0 3.97v4m0 3.96v3.97m0 3.97v3.97m0 3.97v3.97m0 4v3.96m0 3.97v3.97m0 3.97v3.97m0 3.97v4m0 3.96v3.97m0 3.97v3.97m0 3.97v3.97m0 4v3.96m0 3.97v3.97m0 3.97v3.97m0 3.97v4m0 3.96v3.97m0 3.97v3.97m0 3.97v3.97m0 4v3.96m0 3.97V250m0 3.97v3.97m0 3.97v4m0 3.96v3.97m0 3.97v3.97m0 3.97v3.97m0 4v3.96m0 3.97v3.97m0 3.97v3.97m0 3.97v2" fill="none"/><path d="M260.98 41.5h-.96V41h.96zM260.98 320h-.96v-.5h.96z" stroke-width=".05" fill="#b0b8c3"/><path d="M460.5 41.5v278" fill="none"/><path d="M460.97 41.5h-.94V41h.94zM460.97 320h-.94v-.5h.94z" stroke-width=".05" fill="#b0b8c3"/><path d="M260.76 41.43l1 1.7m2.05 3.4l2.04 3.38m2.04 3.4l2.03 3.4m2.04 3.4l2.04 3.4m2.03 3.38l2.04 3.4m2.04 3.4l2.03 3.38m2.05 3.4l2.03 3.4m2.04 3.38l2.03 3.4m2.03 3.4l2.04 3.38m2.03 3.4l2.03 3.4m2.04 3.4l2.03 3.38m2.04 3.4l2.02 3.4m2.03 3.38l2.04 3.4m2.02 3.4l2.04 3.38m2.03 3.4l2.02 3.4m2.04 3.38l2.03 3.4m2.03 3.4l2.03 3.38m2.03 3.4l2.03 3.4m2.03 3.38l2.04 3.4m2.03 3.4l2.03 3.4m2.04 3.38l2.03 3.4m2.03 3.4l2.04 3.38m2.03 3.4l2.04 3.4m2.03 3.38l2.04 3.4m2.03 3.4l2.03 3.38m2.04 3.4l2.03 3.4m2.03 3.38l2.04 3.4m2.03 3.4l2.04 3.38m2.04 3.4l2.03 3.4m2.04 3.38l2.04 3.4m2.04 3.4l2.03 3.38m2.04 3.4l2.04 3.4m2.03 3.4l2.05 3.38m2.03 3.4l2.03 3.4m2.05 3.38l2.03 3.4m2.04 3.4l2.03 3.38m2.03 3.4l2.04 3.4m2.03 3.38l2.04 3.4m2.02 3.4l2.03 3.38m2.04 3.4l2.02 3.4m2.03 3.4l2.04 3.38m2.02 3.4l2.04 3.4m2.03 3.38l2.02 3.4m2.04 3.4l2.03 3.38m2.03 3.4l1 1.7" fill="none"/><path d="M261.17 41.2l-.8.48-.42-.68h1.1zM440 341.42l-.67-1.12.67-.4z" stroke-width=".05" fill="#b0b8c3"/><path d="M460.2 41.4L260.8 319.6" fill="none"/><path d="M460.6 41.7l-.78-.56.1-.14h1.16zM261.18 319.86l-.1.14h-1.16l.5-.7z" stroke-width=".05" fill="#b0b8c3"/><path d="M260.9 41.3l1.57 1.25m3.16 2.5l3.15 2.5m3.16 2.48l3.15 2.5m3.15 2.48l3.16 2.5m3.16 2.5l3.16 2.48m3.15 2.5l3.16 2.48m3.16 2.5l3.14 2.48m3.16 2.5l3.15 2.48m3.16 2.5l3.17 2.5m3.15 2.48l3.16 2.5m3.15 2.48l3.16 2.5m3.15 2.48l3.15 2.5m3.16 2.48l3.15 2.5m3.17 2.48l3.15 2.5m3.16 2.48l3.16 2.5m3.15 2.48l3.15 2.5m3.15 2.5l3.16 2.48m3.16 2.5l3.15 2.48m3.16 2.5l3.16 2.48m3.14 2.5l3.16 2.48m3.15 2.5l3.16 2.48m3.17 2.5l3.15 2.48m3.16 2.5l3.15 2.48m3.16 2.5l3.14 2.5m3.16 2.48l3.16 2.5m3.15 2.48l3.17 2.5m3.15 2.48l3.16 2.5m3.16 2.48l3.15 2.5m3.15 2.48l3.15 2.5m3.16 2.48l3.16 2.5m3.15 2.48l3.16 2.5m3.15 2.5l3.16 2.48m3.16 2.5l3.15 2.48m3.16 2.5l3.16 2.48m3.16 2.5l3.16 2.48m3.15 2.5l3.16 2.48m3.14 2.5l3.16 2.48m3.16 2.5l3.15 2.5m3.17 2.48l3.15 2.5m3.16 2.48l3.15 2.5m3.16 2.48l3.15 2.5m3.15 2.48l3.16 2.5m3.15 2.48l3.17 2.5m3.16 2.48l3.15 2.5m3.16 2.48l3.15 2.5m3.15 2.5l3.16 2.48m3.16 2.5l3.16 2.48m3.15 2.5l3.16 2.48m3.16 2.5l3.14 2.48m3.16 2.5l3.15 2.48m3.16 2.5l3.17 2.48m3.15 2.5l3.16 2.48m3.15 2.5l3.16 2.5m3.15 2.48l3.15 2.5m3.16 2.48l3.15 2.5m3.17 2.48l3.16 2.5m3.15 2.48l3.16 2.5m3.15 2.48l3.15 2.5m3.16 2.48l3.16 2.5m3.16 2.48l3.15 2.5m3.16 2.48l1.58 1.25" fill="none"/><path d="M260.6 41.7l-.87-.7h1.42zM640 339.9v1.2l-.7-.54.6-.75z" stroke-width=".05" fill="#b0b8c3"/><path d="M20.92 319.73l1.7-1.07m3.37-2.14l3.37-2.14m3.38-2.14l3.37-2.15m3.38-2.15l3.38-2.14m3.38-2.13l3.38-2.15M53 299.4l3.4-2.14m3.37-2.14l3.38-2.14m3.38-2.14l3.37-2.15m3.38-2.14l3.38-2.14m3.38-2.15l3.38-2.14m3.38-2.14l3.37-2.14m3.38-2.14l3.38-2.14m3.38-2.15l3.4-2.15m3.36-2.14l3.38-2.13m3.38-2.14l3.38-2.15m3.38-2.14l3.38-2.14m3.37-2.14l3.38-2.14m3.4-2.15l3.37-2.14m3.38-2.14l3.37-2.15m3.38-2.14l3.38-2.14m3.38-2.14l3.38-2.14m3.37-2.14l3.4-2.14m3.37-2.15l3.38-2.14m3.38-2.13l3.38-2.14m3.38-2.14l3.38-2.16m3.38-2.14l3.38-2.14m3.37-2.14l3.37-2.15m3.38-2.14l3.38-2.14m3.38-2.15l3.4-2.14m3.36-2.13l3.38-2.15m3.38-2.14l3.38-2.14m3.38-2.14l3.37-2.14m3.38-2.15l3.38-2.13m3.4-2.14l3.37-2.14m3.38-2.16l3.37-2.14m3.38-2.14l3.38-2.14m3.38-2.14l3.38-2.15m3.37-2.14l3.4-2.15m3.37-2.14l3.38-2.13m3.38-2.14l3.38-2.15m3.38-2.14l3.38-2.14m3.38-2.14l3.38-2.15m3.38-2.13l3.37-2.14m3.38-2.14l3.38-2.15m3.38-2.15l3.4-2.14m3.36-2.14l3.38-2.14m3.38-2.14l3.38-2.15m3.38-2.15l3.38-2.14m3.37-2.13l3.38-2.14m3.4-2.15l3.37-2.14m3.37-2.14l3.38-2.14m3.38-2.14l3.38-2.15m3.38-2.14l3.38-2.14m3.37-2.15l3.4-2.14m3.37-2.14l3.38-2.14m3.38-2.14l3.37-2.14m3.38-2.15l3.38-2.15m3.38-2.14l3.38-2.13m3.38-2.14l3.37-2.15m3.38-2.14l3.38-2.14m3.38-2.14l3.4-2.14m3.36-2.14l3.38-2.15m3.38-2.14l3.38-2.15m3.38-2.14l3.37-2.14m3.38-2.14l3.38-2.14m3.4-2.14l1.68-1.07" fill="none"/><path d="M21.1 320h-1.5l1.08-.68zM460.32 41.68l-.43-.68h1.5z" stroke-width=".05" fill="#b0b8c3"/><path d="M439.6 340.2L20.9 41.3" fill="none"/><path d="M440 339.92v1.16l-.7-.5.56-.76zM20.64 41.68l-.96-.68h1.45z" stroke-width=".05" fill="#b0b8c3"/><path d="M20.83 41.38l1.3 1.5m2.6 3.04l2.6 3.02m2.6 3.02l2.6 3.03m2.6 3l2.6 3.04m2.6 3.02l2.6 3.03m2.6 3l2.6 3.03m2.62 3.03l2.6 3.02m2.6 3.03l2.6 3.03m2.6 3.03l2.6 3.02m2.6 3.02l2.6 3.03m2.6 3.02l2.6 3.03m2.6 3.02l2.6 3.03m2.6 3.02l2.62 3.03m2.6 3.02l2.6 3.02m2.6 3.03l2.6 3.02m2.6 3.03l2.6 3.02m2.6 3.03l2.6 3.02m2.6 3.03l2.6 3.02m2.6 3.02l2.6 3.03m2.62 3.02l2.6 3.02m2.6 3.02l2.6 3.03m2.6 3.02l2.6 3m2.6 3.04l2.6 3.02m2.6 3.03l2.6 3m2.6 3.04l2.6 3.02m2.6 3.03l2.6 3m2.6 3.03l2.6 3.03m2.6 3.02l2.6 3.03m2.62 3.03l2.6 3.03m2.6 3.02l2.6 3.02m2.6 3.03l2.6 3.02m2.6 3.03l2.6 3.02m2.6 3.03l2.6 3.02m2.6 3.03l2.6 3.02m2.6 3.02l2.62 3.03m2.6 3.02l2.6 3.03m2.6 3.02l2.6 3.03m2.6 3.02l2.6 3.03m2.6 3.02l2.6 3.02m2.6 3.03l2.6 3.02m2.6 3.02l2.62 3.02m2.6 3.03l2.6 3.02m2.6 3l2.6 3.04m2.6 3.02l2.6 3.03m2.6 3l2.6 3.04m2.6 3.02l2.6 3.02m2.6 3.03l1.3 1.52" fill="none"/><path d="M21.2 41.08l-.73.62-.6-.7h1.26zM261.13 320h-1.26l-.07-.08.73-.62z" stroke-width=".05" fill="#b0b8c3"/><path d="M639.55 340.28L20.95 41.22" fill="none"/><path d="M640 339.97v1.06l-.67-.33.4-.85zM20.75 41.65L19.4 41h1.67z" stroke-width=".05" fill="#b0b8c3"/><path d="M460.8 319.6l1.15-1.62m2.33-3.24l2.33-3.23m2.33-3.23l2.33-3.23m2.33-3.24l2.3-3.23m2.34-3.24l2.33-3.23m2.32-3.24l2.32-3.23m2.33-3.24l2.32-3.24m2.33-3.24l2.33-3.23m2.32-3.24l2.33-3.24m2.33-3.23l2.33-3.25m2.33-3.23l2.32-3.24m2.33-3.23l2.34-3.24m2.32-3.22l2.33-3.24m2.32-3.23l2.32-3.23m2.33-3.23l2.33-3.24m2.32-3.23l2.33-3.24m2.33-3.23l2.32-3.23m2.33-3.24l2.32-3.23m2.33-3.24l2.33-3.23m2.33-3.24l2.33-3.24m2.33-3.24l2.3-3.23m2.34-3.25l2.33-3.23m2.32-3.24l2.32-3.23m2.32-3.24l2.33-3.22m2.33-3.24l2.33-3.23m2.32-3.23l2.33-3.23m2.32-3.24l2.33-3.23m2.33-3.24l2.32-3.23m2.33-3.23l2.34-3.24m2.32-3.23l2.33-3.24m2.32-3.23l2.32-3.24m2.33-3.24l2.32-3.24m2.32-3.23l2.33-3.25m2.32-3.23l2.33-3.24m2.33-3.23l2.32-3.24m2.33-3.22l2.33-3.24m2.33-3.23l2.33-3.22m2.33-3.24l2.3-3.23m2.34-3.23l2.33-3.23m2.32-3.24l2.32-3.23m2.32-3.24l2.33-3.23m2.33-3.24l2.32-3.23m2.33-3.24l2.33-3.24m2.32-3.24l1.17-1.6" fill="none"/><path d="M461.18 319.86l-.1.14h-1.17l.5-.7zM661.24 41.7l-.77-.56.1-.14h1.17z" stroke-width=".05" fill="#b0b8c3"/><path d="M260.9 319.7L660.1 41.3" fill="none"/><path d="M261.13 320h-1.46l.98-.68zM660.35 41.68l-.48-.68h1.46z" stroke-width=".05" fill="#b0b8c3"/><path d="M260.17 41.38L20.83 319.62" fill="none"/><path d="M260.53 41.7l-.73-.62.07-.08h1.26zM21.2 319.92l-.07.08h-1.26l.6-.7z" stroke-width=".05" fill="#b0b8c3"/><path d="M20.96 319.8L660.04 41.2" fill="none"/><path d="M21.06 320H19.3l1.48-.64zM660.22 41.64l-.28-.64h1.75z" stroke-width=".05" fill="#b0b8c3"/><path d="M240.5.5h40v40h-40zM.5.5h40v40H.5zM.5 320.5h40v40H.5zM240.5 320.5h40v40h-40zM440.5 320.5h40v40h-40zM640.5 320.5h40v40h-40zM440.5.5h40v40h-40zM640.5.5h40v40h-40z" fill="#b0b8c3"/></g></svg>