<svg xmlns="http://www.w3.org/2000/svg" xmlns:lucid="lucid" width="1041" height="1121"><g lucid:page-tab-id="0_0"><path d="M.5.5h1040v1120H.5z" stroke="#000" stroke-opacity="0" fill-opacity="0"/><path d="M540.5 40.5c0 11.05-8.95 20-20 20s-20-8.95-20-20 8.95-20 20-20 20 8.95 20 20zM540.5 160.5c0 11.05-8.95 20-20 20s-20-8.95-20-20 8.95-20 20-20 20 8.95 20 20zM220.5 160.5c0 11.05-8.95 20-20 20s-20-8.95-20-20 8.95-20 20-20 20 8.95 20 20zM860.5 160.5c0 11.05-8.95 20-20 20s-20-8.95-20-20 8.95-20 20-20 20 8.95 20 20zM60.5 400.5c0 11.05-8.95 20-20 20s-20-8.95-20-20 8.95-20 20-20 20 8.95 20 20zM380.5 400.5c0 11.05-8.95 20-20 20s-20-8.95-20-20 8.95-20 20-20 20 8.95 20 20zM700.5 400.5c0 11.05-8.95 20-20 20s-20-8.95-20-20 8.95-20 20-20 20 8.95 20 20zM1020.5 400.5c0 11.05-8.95 20-20 20s-20-8.95-20-20 8.95-20 20-20 20 8.95 20 20zM60.5 720.5c0 11.05-8.95 20-20 20s-20-8.95-20-20 8.95-20 20-20 20 8.95 20 20zM380.5 720.5c0 11.05-8.95 20-20 20s-20-8.95-20-20 8.95-20 20-20 20 8.95 20 20zM700.5 720.5c0 11.05-8.95 20-20 20s-20-8.95-20-20 8.95-20 20-20 20 8.95 20 20zM1020.5 720.5c0 11.05-8.95 20-20 20s-20-8.95-20-20 8.95-20 20-20 20 8.95 20 20zM540.5 960.5c0 11.05-8.95 20-20 20s-20-8.95-20-20 8.95-20 20-20 20 8.95 20 20zM220.5 960.5c0 11.05-8.95 20-20 20s-20-8.95-20-20 8.95-20 20-20 20 8.95 20 20zM860.5 960.5c0 11.05-8.95 20-20 20s-20-8.95-20-20 8.95-20 20-20 20 8.95 20 20zM540.5 1080.5c0 11.05-8.95 20-20 20s-20-8.95-20-20 8.95-20 20-20 20 8.95 20 20z" stroke="#353f58" fill="#353f58"/><path d="M184.68 946.87L52.18 737.9" stroke="#353f58" fill="none"/><path d="M185.24 946.88l-.6.82-.37-.6.8-.5zM52.58 737.66l-.8.5-.25-.38h.03l.7-.6z" stroke="#353f58" stroke-width=".05" fill="#353f58"/><path d="M216.68 973.66l287.76 101.47" stroke="#353f58" fill="none"/><path d="M216.85 973.22l-.3.9-.63-.22.58-.8z" stroke="#353f58" stroke-width=".05" fill="#353f58"/><path d="M504.43 1075.12l.48.17M540.73 1075.38l279.84-108.23" stroke="#353f58" fill="none"/><path d="M540.9 1075.82l-.54.22-.2-.95.4-.17zM821.04 966.97l.2.43-.5.2-.35-.9.54-.2z" stroke="#353f58" stroke-width=".05" fill="#353f58"/><path d="M853.47 944.16l132.7-208.33" stroke="#353f58" fill="none"/><path d="M853.88 944.4l-.3.46-.76-.56.26-.4zM986.53 735.5l.28.2-.23.4-.8-.5.36-.57z" stroke="#353f58" stroke-width=".05" fill="#353f58"/><path d="M1000.5 699.5v-278" stroke="#353f58" fill="none"/><path d="M1000.97 700.06l-.45-.06-.5.02v-.53h.95zM1000.48 421l.5-.02v.53h-.95v-.56z" stroke="#353f58" stroke-width=".05" fill="#353f58"/><path d="M986.23 385.26l-134.77-206.9" stroke="#353f58" fill="none"/><path d="M986.87 385.38l-.73.6-.3-.47.78-.5zM851.87 178.12l-.8.5-.3-.47.8-.38.04-.04z" stroke="#353f58" stroke-width=".05" fill="#353f58"/><path d="M540.02 47.82l280.95 105.36" stroke="#353f58" fill="none"/><path d="M540.2 47.38l-.33.9-.5-.2.36-.88zM821.62 152.9l-.35.9-.47-.18.33-.9z" stroke="#353f58" stroke-width=".05" fill="#353f58"/><path d="M500.9 47.85l-280.8 105.3" stroke="#353f58" fill="none"/><path d="M501.58 48.1l-.52.2-.33-.9.44-.16zM220.27 153.6l-.44.16-.4-.86.5-.2z" stroke="#353f58" stroke-width=".05" fill="#353f58"/><path d="M187.92 177.13L52.28 383.3" stroke="#353f58" fill="none"/><path d="M188.58 177l-.27.4-.78-.52.3-.45zM52.7 383.55l-.3.44-.78-.56.27-.4z" stroke="#353f58" stroke-width=".05" fill="#353f58"/><path d="M40.5 421.5v278" stroke="#353f58" fill="none"/><path d="M40.48 421l.5-.02v.53h-.96v-.56zM40.98 700.06l-.46-.06-.5.02v-.53h.96z" stroke="#353f58" stroke-width=".05" fill="#353f58"/><path d="M221.5 160.5h278" stroke="#353f58" fill="none"/><path d="M221.5 160.98h-.56l.06-.46-.02-.5h.53zM500 160.48l.02.5h-.53v-.96h.56z" stroke="#353f58" stroke-width=".05" fill="#353f58"/><path d="M541.5 160.5h278" stroke="#353f58" fill="none"/><path d="M541.5 160.98h-.56l.06-.46-.02-.5h.53zM820 160.48l.02.5h-.53v-.96h.56z" stroke="#353f58" stroke-width=".05" fill="#353f58"/><path d="M221.5 960.5h278" stroke="#353f58" fill="none"/><path d="M221.5 960.97h-.56l.06-.45-.02-.5h.53zM500 960.48l.02.5h-.53v-.95h.56z" stroke="#353f58" stroke-width=".05" fill="#353f58"/><path d="M541.5 960.5h278" stroke="#353f58" fill="none"/><path d="M541.5 960.97h-.56l.06-.45-.02-.5h.53zM820 960.48l.02.5h-.53v-.95h.56z" stroke="#353f58" stroke-width=".05" fill="#353f58"/><path d="M200.5 181.5v758" stroke="#353f58" fill="none"/><path d="M200.48 181l.5-.02v.53h-.96v-.56zM200.98 940.06l-.46-.06-.5.02v-.53h.96z" stroke="#353f58" stroke-width=".05" fill="#353f58"/><path d="M840.5 181.5v758" stroke="#353f58" fill="none"/><path d="M840.48 181l.5-.02v.53h-.95v-.56zM840.97 940.06l-.45-.06-.5.02v-.53h.95z" stroke="#353f58" stroke-width=".05" fill="#353f58"/><path d="M213.25 944l133-208.07" stroke="#353f58" fill="none"/><path d="M213.65 944.24l-.3.45-.76-.56.25-.4zM346.53 735.5l.38.28-.25.4-.8-.5.36-.56z" stroke="#353f58" stroke-width=".05" fill="#353f58"/><path d="M373.5 736.8l137.35 216.5" stroke="#353f58" fill="none"/><path d="M373.9 736.56l-.8.5-.25-.37.74-.63z" stroke="#353f58" stroke-width=".05" fill="#353f58"/><path d="M510.84 953.3l.27.42M536.46 947.13L666.3 735.96" stroke="#353f58" fill="none"/><path d="M536.87 947.37l-.36.57-.63-.77.2-.3zM666.53 735.5l.42.3-.25.42-.8-.5.34-.56z" stroke="#353f58" stroke-width=".05" fill="#353f58"/><path d="M693.4 736.88l132.92 208.3" stroke="#353f58" fill="none"/><path d="M693.8 736.64l-.8.5-.24-.37.73-.62zM826.96 945.3l-.74.62-.3-.48.8-.5z" stroke="#353f58" stroke-width=".05" fill="#353f58"/><path d="M369.38 739.36l142.92 325.6" stroke="#353f58" fill="none"/><path d="M369.82 739.18l-.87.4-.2-.47.86-.4z" stroke="#353f58" stroke-width=".05" fill="#353f58"/><path d="M512.3 1064.94l.2.47M670.5 738.96l-140.85 326.7" stroke="#353f58" fill="none"/><path d="M670.68 738.5l.45.18-.2.5-.88-.4.24-.56z" stroke="#353f58" stroke-width=".05" fill="#353f58"/><path d="M529.66 1065.65l-.2.47M379.16 730l443.2 220.02" stroke="#353f58" fill="none"/><path d="M379.4 729.6l-.44.84-.42-.2.35-.9zM823.1 949.86l-.57.78-.4-.2.43-.85z" stroke="#353f58" stroke-width=".05" fill="#353f58"/><path d="M219 950.84L661.64 729.4" stroke="#353f58" fill="none"/><path d="M219.22 951.26l-.47.23-.4-.87.44-.22zM662.3 729.6l-.45.24-.43-.86.47-.23z" stroke="#353f58" stroke-width=".05" fill="#353f58"/><path d="M539.52 951.94L981.8 729.72" stroke="#353f58" fill="none"/><path d="M539.74 952.36l-.47.23-.4-.87.44-.22zM982.45 729.93l-.45.22-.42-.84.46-.23z" stroke="#353f58" stroke-width=".05" fill="#353f58"/><path d="M220.46 954l760.5-226.06" stroke="#353f58" fill="none"/><path d="M220.6 954.44l-.52.16-.12-.57-.16-.34.54-.17zM981.64 728.23l-.56.17-.27-.9.43-.13z" stroke="#353f58" stroke-width=".05" fill="#353f58"/><path d="M820.46 954.5l-759.92-228" stroke="#353f58" fill="none"/><path d="M821.1 954.2l-.33.88-.46-.14.3-.9zM60.7 726.06l-.28.9-.53-.15.34-.88z" stroke="#353f58" stroke-width=".05" fill="#353f58"/><path d="M360.5 421.5v278" stroke="#353f58" fill="none"/><path d="M360.48 421l.5-.02v.53h-.96v-.56zM360.98 700.06l-.46-.06-.5.02v-.53h.96z" stroke="#353f58" stroke-width=".05" fill="#353f58"/><path d="M680.5 421.5v278" stroke="#353f58" fill="none"/><path d="M680.48 421l.5-.02v.53h-.95v-.56zM680.97 700.06l-.45-.06-.5.02v-.53h.95z" stroke="#353f58" stroke-width=".05" fill="#353f58"/><path d="M511.17 59.23l-142.2 322.2" stroke="#353f58" fill="none"/><path d="M511.8 58.95l-.2.5-.87-.4.2-.45zM369.4 381.6l-.18.46-.9-.35.22-.47z" stroke="#353f58" stroke-width=".05" fill="#353f58"/><path d="M528.97 59.56l143.06 321.88" stroke="#353f58" fill="none"/><path d="M529.4 59.38l-.86.38-.2-.45.86-.4zM672.66 381.7l-.86.4-.2-.48.86-.38z" stroke="#353f58" stroke-width=".05" fill="#353f58"/><path d="M508.24 177.36l-133.5 207.7" stroke="#353f58" fill="none"/><path d="M508.9 177.22l-.26.4-.8-.5.3-.46zM375.15 385.32l-.36.56-.33-.38-.38-.28.25-.4z" stroke="#353f58" stroke-width=".05" fill="#353f58"/><path d="M532.13 177.94l135.82 205.9" stroke="#353f58" fill="none"/><path d="M532.53 177.7l-.8.52-.26-.4.1-.05.65-.55zM668.6 383.94l-.74.6-.3-.46.78-.53z" stroke="#353f58" stroke-width=".05" fill="#353f58"/><path d="M217.78 172.16L667.04 393.6" stroke="#353f58" fill="none"/><path d="M218 171.74l-.4.85-.55-.27.57-.78z" stroke="#353f58" stroke-width=".05" fill="#353f58"/><path d="M667.03 393.6l.46.2M378.95 390.75L822.7 171.63" stroke="#353f58" fill="none"/><path d="M379.17 391.17l-.46.23-.4-.85.45-.23zM823.23 171.56l.2.24-.52.26-.4-.85.46-.22z" stroke="#353f58" stroke-width=".05" fill="#353f58"/><path d="M375.53 415.1l292.93 295.8" stroke="#353f58" fill="none"/><path d="M375.87 414.78l-.67.67-.4-.4.7-.58.03-.04z" stroke="#353f58" stroke-width=".05" fill="#353f58"/><path d="M668.45 710.88l.36.36M665.8 415.4L375.4 705.83" stroke="#353f58" fill="none"/><path d="M666.46 415.42l-.33.34-.68-.68.4-.4zM375.74 706.14l-.4.4-.6-.73.33-.33z" stroke="#353f58" stroke-width=".05" fill="#353f58"/><path d="M379.22 409.86l602.56 301.28" stroke="#353f58" fill="none"/><path d="M379.44 409.44l-.42.85-.42-.22.35-.9zM982.4 710.92l-.35.9-.5-.26.43-.85z" stroke="#353f58" stroke-width=".05" fill="#353f58"/><path d="M58.05 709.02l603.84-299.1" stroke="#353f58" fill="none"/><path d="M58.27 709.44l-.4.2-.1-.2-.48-.58.55-.27zM662.54 410.1l-.45.24-.44-.85.47-.25z" stroke="#353f58" stroke-width=".05" fill="#353f58"/><path d="M59.15 391.17l442.7-221.34" stroke="#353f58" fill="none"/><path d="M59.38 391.6l-.47.23-.4-.86.45-.23zM502.5 170.03l-.45.23-.43-.85.47-.23z" stroke="#353f58" stroke-width=".05" fill="#353f58"/><path d="M60.87 396.04L820.32 165.9" stroke="#353f58" fill="none"/><path d="M61.02 396.5l-.54.15-.18-.94.44-.12zM820.9 166.24l-.45.13-.28-.9.54-.17z" stroke="#353f58" stroke-width=".05" fill="#353f58"/><path d="M692.07 383.14l136.86-205.28" stroke="#353f58" fill="none"/><path d="M692.47 383.4l-.3.44-.76-.56.28-.4zM829.6 177.72l-.28.4-.8-.52.3-.44z" stroke="#353f58" stroke-width=".05" fill="#353f58"/><path d="M348.87 383.06L212.13 177.94" stroke="#353f58" fill="none"/><path d="M349.53 383.2l-.1.03-.65.55-.3-.47.78-.52zM212.53 177.7l-.8.52-.26-.4.1-.05.65-.55z" stroke="#353f58" stroke-width=".05" fill="#353f58"/><path d="M539.5 169.13L981.3 392.4" stroke="#353f58" fill="none"/><path d="M539.74 168.7l-.43.86-.4-.22.34-.88zM981.9 392.17l-.34.9-.5-.26.43-.84z" stroke="#353f58" stroke-width=".05" fill="#353f58"/><path d="M980.46 394.5l-760.8-225.75" stroke="#353f58" fill="none"/><path d="M981.1 394.2l-.33.88-.46-.14.28-.9zM219.8 168.3l-.26.9-.53-.15.35-.9z" stroke="#353f58" stroke-width=".05" fill="#353f58"/><path d="M520.5 61.5v78" stroke="#353f58" fill="none"/><path d="M520.48 61l.5-.02v.53H520v-.56zM520.98 140.06l-.46-.06-.5.02v-.53h.96z" stroke="#353f58" stroke-width=".05" fill="#353f58"/><path d="M520.5 181.5v758" stroke="#353f58" fill="none"/><path d="M520.48 181l.5-.02v.53H520v-.56zM520.98 940.06l-.46-.06-.5.02v-.53h.96z" stroke="#353f58" stroke-width=".05" fill="#353f58"/><path d="M520.5 981.5v78" stroke="#353f58" fill="none"/><path d="M520.48 981l.5-.02v.53H520v-.56zM520.98 1060.06l-.46-.06-.5.02v-.53h.96z" stroke="#353f58" stroke-width=".05" fill="#353f58"/><path d="M661.1 712.83L57.36 412.75" stroke="#353f58" fill="none"/><path d="M661.73 712.6l-.35.9-.5-.25.43-.85zM57.58 412.34l-.43.85-.52-.28.56-.78z" stroke="#353f58" stroke-width=".05" fill="#353f58"/><path d="M51.92 418.12l293.78 287.6" stroke="#353f58" fill="none"/><path d="M52.26 417.78l-.66.68-.5-.48.46-.2.37-.32zM346.42 705.75l-.73.6-.34-.3.66-.7z" stroke="#353f58" stroke-width=".05" fill="#353f58"/><path d="M980.7 713.9L60.3 407.1" stroke="#353f58" fill="none"/><path d="M981.34 713.6l-.35.9-.47-.16.3-.9zM60.47 406.66l-.3.9-.5-.17.34-.9z" stroke="#353f58" stroke-width=".05" fill="#353f58"/><path d="M694.5 704.9L985 414.45" stroke="#353f58" fill="none"/><path d="M694.86 705.24l-.33.33-.06-.08-.7-.5.4-.43zM985.65 414.45l-.34.33-.66-.67.4-.38z" stroke="#353f58" stroke-width=".05" fill="#353f58"/><path d="M379.76 712.46l601.8-303.26" stroke="#353f58" fill="none"/><path d="M380 712.88l-.48.23-.4-.84.44-.23zM982.2 409.4l-.45.23-.42-.85.46-.23z" stroke="#353f58" stroke-width=".05" fill="#353f58"/><path d="M345.45 415L55.05 705.4" stroke="#353f58" fill="none"/><path d="M346.1 415l-.33.33-.67-.67.4-.4zM55.38 705.72l-.4.4-.5-.63-.12-.1.35-.35z" stroke="#353f58" stroke-width=".05" fill="#353f58"/><path d="M60.53 714.36l919.93-307.73" stroke="#353f58" fill="none"/><path d="M60.7 714.8l-.55.2-.18-.95.42-.15zM981.03 406.94l-.43.14-.3-.9.55-.18z" stroke="#353f58" stroke-width=".05" fill="#353f58"/></g></svg>