<svg id="Layer_1" enable-background="new 0 0 500 500" viewBox="0 0 500 500" xmlns="http://www.w3.org/2000/svg" fill="#353F58"><path clip-rule="evenodd" d="m469.845 183.992c-8.426-87.686-80.57-155.931-168.52-159.737v50.207h21.342c19.743 0 35.795 16.063 35.795 35.815 0 19.751-16.052 35.821-35.795 35.821h-21.342v47.288h55.107c4.367 0 7.811 3.495 7.811 7.786v29.067c0 11.165 9.103 20.237 20.235 20.246 11.132-.009 20.235-9.081 20.235-20.246v-29.067c0-4.291 3.444-7.786 7.811-7.786h57.936zm-390.118 85.778c0-19.751 16.052-35.821 35.857-35.821 19.743 0 35.795 16.07 35.795 35.821v21.269l47.296.01v-55.087c0-4.303 3.444-7.786 7.811-7.786h29.03c11.132 0 20.296-9.082 20.296-20.248 0-11.155-9.164-20.236-20.296-20.236h-29.03c-4.367 0-7.811-3.486-7.811-7.789v-57.996c-91.517 3.973-165.138 77.622-169.135 169.142l50.187-.01zm253.457 58.121c0 19.751-16.052 35.814-35.857 35.823-19.681 0-35.734-16.073-35.734-35.823v-21.269h-47.296v55.077c0 4.303-3.506 7.786-7.811 7.786h-29.091c-11.132 0-20.173 9.083-20.173 20.238 0 11.164 9.041 20.246 20.173 20.246h29.091c4.305 0 7.811 3.486 7.811 7.789v57.898l9.348-.565c87.704-8.428 155.974-80.589 159.725-168.47l-50.187-.01v21.28zm-155.789 97.654h21.28v50.2c-87.827-3.818-160.033-72.043-168.459-159.739l-.554-9.384 57.875-.01c4.305 0 7.749-3.484 7.749-7.786v-29.056c0-11.167 9.164-20.248 20.296-20.248s20.235 9.082 20.235 20.248v29.056c0 4.303 3.444 7.786 7.749 7.786l55.107.01v47.29h-21.28c-19.743 0-35.795 16.07-35.795 35.822.002 19.751 16.054 35.811 35.797 35.811z" fill-rule="evenodd"/></svg>