<svg xmlns="http://www.w3.org/2000/svg" xmlns:lucid="lucid" width="805" height="565"><g lucid:page-tab-id="0_0" stroke="#353f58"><path d="M82.5 42.5c0 22.1-17.9 40-40 40s-40-17.9-40-40 17.9-40 40-40 40 17.9 40 40zM322.5 202.5c0 22.1-17.9 40-40 40s-40-17.9-40-40 17.9-40 40-40 40 17.9 40 40zM562.5 362.5c0 22.1-17.9 40-40 40s-40-17.9-40-40 17.9-40 40-40 40 17.9 40 40zM802.5 522.5c0 22.1-17.9 40-40 40s-40-17.9-40-40 17.9-40 40-40 40 17.9 40 40zM802.5 202.5c0 22.1-17.9 40-40 40s-40-17.9-40-40 17.9-40 40-40 40 17.9 40 40zM82.5 362.5c0 22.1-17.9 40-40 40s-40-17.9-40-40 17.9-40 40-40 40 17.9 40 40z" stroke-width="5" fill="#353f58"/><path d="M79.9 67.43l165.2 110.14" stroke-width="5" fill="none"/><path d="M81.32 65.4l-2.75 4.12-2.18-1.45.6-.72 2.13-3.4zM248.6 176.93l-.6.72-2.13 3.4-2.2-1.46 2.76-4.12z" stroke-width=".05" fill="#353f58"/><path d="M319.9 227.43l165.2 110.14" stroke-width="5" fill="none"/><path d="M321.32 225.4l-2.75 4.12-2.18-1.45.6-.72 2.13-3.4zM488.6 336.93l-.6.72-2.13 3.4-2.2-1.46 2.76-4.12z" stroke-width=".05" fill="#353f58"/><path d="M559.9 387.43l165.2 110.14" stroke-width="5" fill="none"/><path d="M561.32 385.4l-2.75 4.12-2.18-1.45.6-.72 2.13-3.4zM728.6 496.93l-.6.72-2.13 3.4-2.2-1.45 2.76-4.12z" stroke-width=".05" fill="#353f58"/><path d="M42.5 317.5v-230" stroke-width="5" fill="none"/><path d="M44.97 320.15l-2.44-.15-2.5.1v-2.67h4.94zM42.47 85l2.5-.1v2.67h-4.94v-2.72z" stroke-width=".05" fill="#353f58"/><path d="M87.5 362.5h390" stroke-width="5" fill="none"/><path d="M87.57 364.98h-2.72l.15-2.45-.1-2.5h2.67zM480 362.47l.1 2.5h-2.67v-4.94h2.72z" stroke-width=".05" fill="#353f58"/><path d="M327.5 202.5h390" stroke-width="5" fill="none"/><path d="M327.57 204.97h-2.72l.15-2.44-.1-2.5h2.67zM720 202.47l.1 2.5h-2.67v-4.94h2.72z" stroke-width=".05" fill="#353f58"/><path d="M762.5 247.5v230" stroke-width="5" fill="none"/><path d="M762.47 245l2.5-.1v2.67h-4.94v-2.72zM764.97 480.15l-2.44-.15-2.5.1v-2.67h4.94z" stroke-width=".05" fill="#353f58"/><path d="M79.92 337.56l165.16-110.12" stroke-width="5" fill="none"/><path d="M81.34 339.58l-2.22 1.48-.83-1.5-1.93-2.6 2.23-1.5zM246.7 225.44l1.93 2.6-2.23 1.5-2.74-4.12 2.22-1.48z" stroke-width=".05" fill="#353f58"/><path d="M560.9 339.13l164.2-111.67" stroke-width="5" fill="none"/><path d="M562.35 341.14l-2.3 1.57-1.76-3.14-.8-1.1 2.06-1.4zM726.7 225.44l1.93 2.6-2.2 1.5-2.78-4.1 2.23-1.5z" stroke-width=".05" fill="#353f58"/><path d="M562.5 42.5c0 22.1-17.9 40-40 40s-40-17.9-40-40 17.9-40 40-40 40 17.9 40 40z" stroke-width="5" fill="#353f58"/><path d="M522.5 87.5v230" stroke-width="5" fill="none"/><path d="M522.47 85l2.5-.1v2.67h-4.94v-2.72zM524.97 320.15l-2.44-.15-2.5.1v-2.67h4.94z" stroke-width=".05" fill="#353f58"/><path d="M322.5 522.5c0 22.1-17.9 40-40 40s-40-17.9-40-40 17.9-40 40-40 40 17.9 40 40z" stroke-width="5" fill="#353f58"/><path d="M282.5 247.5v230" stroke-width="5" fill="none"/><path d="M282.47 245l2.5-.1v2.67h-4.94v-2.72zM284.97 480.15l-2.44-.15-2.5.1v-2.67h4.94z" stroke-width=".05" fill="#353f58"/><path d="M320.1 497.82l165.23-110.04" stroke-width="5" fill="none"/><path d="M321.53 499.84l-2.25 1.5-1-1.78-1.72-2.35 2.23-1.48zM486.7 385.44l2.18 2.95-2.23 1.48-2.74-4.13 2.18-1.44z" stroke-width=".05" fill="#353f58"/><path d="M319.92 177.56L485.08 67.44" stroke-width="5" fill="none"/><path d="M321.34 179.58l-2.22 1.48-.83-1.5-1.93-2.6 2.23-1.5zM486.7 65.44l1.93 2.6-2.23 1.5-2.74-4.12 2.22-1.48z" stroke-width=".05" fill="#353f58"/></g></svg>