<svg xmlns="http://www.w3.org/2000/svg" xmlns:lucid="lucid" width="161" height="481"><g lucid:page-tab-id="0_0" stroke="#353f58"><path d="M.5.5h160v160H.5z" fill="#fff"/><path d="M41.08 161.5V480" fill="none"/><path d="M41.55 161.5h-.95v-.5h.95z" stroke-width=".05" fill="#353f58"/><path d="M41.08 480v.5M120.5 161v2m0 3.98v4m0 3.98v3.98m0 4v3.98m0 4v3.97m0 3.98v4m0 3.98v3.98m0 4v3.98m0 4v3.97m0 3.98v4m0 3.98v3.98m0 4v3.98m0 4v3.97m0 3.98v4m0 3.98v3.98m0 4v3.98m0 4v3.97m0 3.98v4m0 3.98v3.98m0 4v3.98m0 4v3.97m0 3.98v4m0 3.98v3.98m0 4v3.98m0 4v3.97m0 3.98v4m0 3.98v3.98m0 4v3.98m0 4v3.97m0 3.98v4m0 3.98v3.98m0 4v3.98m0 4v3.97m0 3.98v4m0 3.98v3.98m0 4v3.98m0 4v3.97m0 3.98v4m0 3.98v3.98m0 4V474m0 4V480M120.5 161v-.5M120.5 480v.5" fill="none"/></g></svg>