<svg xmlns="http://www.w3.org/2000/svg" xmlns:lucid="lucid" width="641.5" height="42"><g lucid:page-tab-id="0_0"><path d="M201 21c0 11.05-8.95 20-20 20s-20-8.95-20-20 8.95-20 20-20 20 8.95 20 20zM41 21c0 11.05-8.95 20-20 20S1 32.05 1 21 9.95 1 21 1s20 8.95 20 20z" stroke="#000" stroke-opacity="0" stroke-width="2" fill="#b0b8c3"/><path d="M320.5 21h-119" stroke="#b0b8c3" fill="none"/><path d="M321 21l.02.48h-.53v-.96h.56zM201.5 21.48h-.56L201 21l-.02-.48h.53z" stroke="#b0b8c3" stroke-width=".05" fill="#b0b8c3"/><path d="M160.5 21h-119" stroke="#b0b8c3" fill="none"/><path d="M161 21l.02.48h-.53v-.96h.56zM41.5 21.48h-.56L41 21l-.02-.48h.53z" stroke="#b0b8c3" stroke-width=".05" fill="#b0b8c3"/><path d="M361 21c0 11.05-8.95 20-20 20s-20-8.95-20-20 8.95-20 20-20 20 8.95 20 20zM521 21c0 11.05-8.95 20-20 20s-20-8.95-20-20 8.95-20 20-20 20 8.95 20 20z" stroke="#000" stroke-opacity="0" stroke-width="2" fill="#b0b8c3"/><path d="M361.5 21h119" stroke="#b0b8c3" fill="none"/><path d="M361.5 21.48h-.56L361 21l-.02-.48h.53zM481 21l.02.48h-.53v-.96h.56z" stroke="#b0b8c3" stroke-width=".05" fill="#b0b8c3"/><path d="M521.5 21h119" stroke="#b0b8c3" fill="none"/><path d="M521.5 21.48h-.56L521 21l-.02-.48h.53z" stroke="#b0b8c3" stroke-width=".05" fill="#b0b8c3"/><path d="M640.5 21h.5" stroke="#b0b8c3" fill="none"/></g></svg>