<svg xmlns="http://www.w3.org/2000/svg" xmlns:lucid="lucid" width="482" height="98.46"><g lucid:page-tab-id="0_0" stroke="#b0b8c3" stroke-width="2"><path d="M2 9.23h463M2.03 9.23H1" fill="none"/><path d="M479 9.23l-13 7.5v-15z" fill="#b0b8c3"/><path d="M17 89.23h3.98m8 0h7.97m7.98 0h7.98m8 0h7.98m7.98 0h8m7.97 0h7.98m8 0h7.98m7.98 0h7.98m8 0h7.97m8 0h7.97m8 0h7.97m7.98 0h8m7.97 0h7.97m8 0h7.97m7.98 0h7.98m8 0h7.97m7.98 0h8m7.97 0h7.98m7.98 0h8m7.97 0h7.98m8 0h7.97m7.98 0h8m7.97 0h7.98m7.98 0h8m7.98 0h7.98m7.98 0h8m7.97 0h8m7.98 0h7.98m7.98 0h8m7.97 0h4" fill="none"/><path d="M3 89.23l13-7.5v15z" fill="#b0b8c3"/><path d="M479.97 89.23H481" fill="none"/></g></svg>