<svg height="480pt" viewBox="0 -16 480 480" width="480pt" xmlns="http://www.w3.org/2000/svg" fill="#353F58"><path d="m408 336c-27.863281.03125-51.46875 20.539062-55.382812 48.128906-.203126-.054687-.410157-.097656-.617188-.128906h-344c-4.417969 0-8 3.582031-8 8s3.582031 8 8 8h344c.207031-.03125.414062-.074219.617188-.128906 4.203124 29.617187 30.941406 50.699218 60.71875 47.878906 29.78125-2.816406 52.085937-28.542969 50.660156-58.421875-1.425782-29.878906-26.082032-53.359375-55.996094-53.328125zm0 0"/><path d="m72 112c27.863281-.03125 51.46875-20.539062 55.382812-48.128906.203126.054687.410157.097656.617188.128906h344c4.417969 0 8-3.582031 8-8s-3.582031-8-8-8h-344c-.207031.03125-.414062.074219-.617188.128906-4.203124-29.617187-30.941406-50.699218-60.71875-47.878906-29.78125 2.816406-52.085937 28.542969-50.660156 58.421875 1.425782 29.878906 26.082032 53.359375 55.996094 53.328125zm0 0"/><path d="m472 216h-176c-.207031.03125-.414062.074219-.617188.128906-3.878906-27.613281-27.5-48.148437-55.382812-48.148437s-51.503906 20.535156-55.382812 48.148437c-.203126-.054687-.410157-.097656-.617188-.128906h-176c-4.417969 0-8 3.582031-8 8s3.582031 8 8 8h176c.207031-.03125.414062-.074219.617188-.128906 3.878906 27.609375 27.5 48.148437 55.382812 48.148437s51.503906-20.539062 55.382812-48.148437c.203126.054687.410157.097656.617188.128906h176c4.417969 0 8-3.582031 8-8s-3.582031-8-8-8zm0 0"/></svg>