<svg xmlns="http://www.w3.org/2000/svg" xmlns:lucid="lucid" width="81" height="481"><g lucid:page-tab-id="0_0" stroke="#353f58" fill="none"><path d="M.5 1v479M.5 1V.5M.5 480v.5M80.5 1v2m0 4v3.98m0 4v3.98m0 4v4m0 3.98v4m0 3.98v4m0 3.98v4m0 4v3.98m0 4v3.98m0 4v4m0 3.98v4m0 3.98v4m0 3.98v4m0 4v3.98m0 4v3.98m0 4v4m0 3.98v4m0 3.98v4m0 3.98v4m0 4v3.98m0 4v3.98m0 4v4m0 3.98v4m0 3.98v4m0 3.98v4m0 4v3.98m0 4v3.98m0 4v4m0 3.98v4m0 3.98v4m0 3.98v4m0 4v3.98m0 4v3.98m0 4v4m0 3.98v4m0 3.98v4m0 3.98v4m0 4v3.98m0 4v3.98m0 4v4m0 3.98v4m0 3.98v4m0 3.98v4m0 4v3.98m0 4v3.98m0 4v4m0 3.98v4m0 3.98v4m0 3.98v4m0 4v3.98m0 4v3.98m0 4v4m0 3.98v4m0 3.98v4m0 3.98v4m0 4v3.98m0 4v3.98m0 4v4m0 3.98v4m0 3.98v4m0 3.98v2M80.5 1V.5M80.5 480v.5"/></g></svg>