<svg id="Layer_1" enable-background="new 0 0 100 100" viewBox="0 0 100 100" xmlns="http://www.w3.org/2000/svg" fill="#353F58"><path d="m83.5100098 16.5400391c-8.4899903-8.7001944-20.3699952-13.9899891-33.5599976-13.9899891-13.0900269 0-24.9700317 5.2897949-33.460022 13.9899893-8.7000131 8.48999-13.9899914 20.3698728-13.9899914 33.5600584 0 13.0898438 5.289978 24.9699707 13.9899912 33.5598145 8.4899902 8.5 20.3699951 13.7900391 33.460022 13.7900391 13.1900024 0 25.0700073-5.2900391 33.5599976-13.7900391 8.7000124-8.6899415 13.9899904-20.4699708 13.9899904-33.5598145 0-13.1901856-5.289978-25.0700684-13.9899902-33.5600586zm-51.0900269.7700195c1.1799927 8.3498535 3.8099976 11.9099121 10.6000366 13.25-6.7900391 1.3300781-9.4200439 4.8999023-10.6000366 13.2399902-1.1900024-8.3400879-3.8099976-11.9099121-10.5999756-13.2399902 6.7899781-1.3400879 9.4099732-4.9001465 10.5999756-13.25zm40.4100342 41.6799316c0 6.1899414-2.6000366 11.9899902-6.7000122 16.1799316-4.0900269 4.1000977-9.789978 6.6000977-16.1799927 6.6000977-6.1900024 0-11.8900146-2.5-15.9800415-6.6000977-4.0999756-4.0898438-6.6999512-9.9899902-6.6999512-16.1799316v-2.8000488c0-1.5898438 1.1999512-2.6899414 2.6999512-2.6899414h40.1600342c1.5999756 0 2.7000122 1.1999512 2.7000122 2.6899414zm-5.2399902-15.1899414c-1.1900024-8.3400879-3.8099976-11.9099121-10.6100464-13.2399902 6.8000488-1.3400879 9.4200439-4.9001465 10.6100464-13.25 1.1799927 8.3498535 3.7999878 11.9099121 10.5899658 13.25-6.7899781 1.3300781-9.4099732 4.8999023-10.5899658 13.2399902z"/></svg>